<svg width="59" height="58" viewBox="0 0 59 58" fill="none" xmlns="http://www.w3.org/2000/svg">
<g clip-path="url(#clip0_5_54)">
<path d="M36.75 19.3333H36.7742" stroke="#1B255A" stroke-width="3.625" stroke-linecap="round" stroke-linejoin="round"/>
<path d="M41.5833 9.66667H17.4166C13.4126 9.66667 10.1666 12.9126 10.1666 16.9167V41.0833C10.1666 45.0874 13.4126 48.3333 17.4166 48.3333H41.5833C45.5874 48.3333 48.8333 45.0874 48.8333 41.0833V16.9167C48.8333 12.9126 45.5874 9.66667 41.5833 9.66667Z" stroke="#1B255A" stroke-width="3.625" stroke-linecap="round" stroke-linejoin="round"/>
<path d="M10.1666 36.25L19.8333 26.5833C20.9354 25.5228 22.1857 24.9645 23.4583 24.9645C24.7309 24.9645 25.9812 25.5228 27.0833 26.5833L39.1666 38.6667" stroke="#1B255A" stroke-width="3.625" stroke-linecap="round" stroke-linejoin="round"/>
<path d="M34.3334 33.8333L36.75 31.4167C37.8522 30.3561 39.1024 29.7978 40.375 29.7978C41.6477 29.7978 42.8979 30.3561 44 31.4167L48.8334 36.25" stroke="#1B255A" stroke-width="3.625" stroke-linecap="round" stroke-linejoin="round"/>
</g>
<defs>
<clipPath id="clip0_5_54">
<rect width="58" height="58" fill="white" transform="translate(0.5)"/>
</clipPath>
</defs>
</svg>
